<?xml version="1.0" encoding="UTF-8" standalone="no" ?>
<!DOCTYPE svg PUBLIC "-//W3C//DTD SVG 1.1//EN" "http://www.w3.org/Graphics/SVG/1.1/DTD/svg11.dtd">
<svg xmlns="http://www.w3.org/2000/svg" xmlns:xlink="http://www.w3.org/1999/xlink" version="1.1" width="50" height="50" viewBox="0 0 500 500" xml:space="preserve">
<desc>Created with Fabric.js 5.3.0</desc>
<defs>
</defs>
<g transform="matrix(1 0 0 1 250 250)" id="W0cUtKufwTCHBL-ABhm1N"  >
<g style=""   >
		<g transform="matrix(4.4498268314 0 0 4.4498268314 0 0)" id="5Dnw--lbpcrUthIPImJHN"  >
<path style="stroke: rgb(2,186,22); stroke-width: 0; stroke-dasharray: none; stroke-linecap: butt; stroke-dashoffset: 0; stroke-linejoin: miter; stroke-miterlimit: 4; fill: rgb(255,255,255); fill-rule: nonzero; opacity: 1;"  transform=" translate(0, 0)" d="M 0 -42.25352 C 23.32394 -42.25352 42.25352 -23.32394 42.25352 0 C 42.25352 23.32394 23.32394 42.25352 0 42.25352 C -23.32394 42.25352 -42.25352 23.32394 -42.25352 0 C -42.25352 -23.32394 -23.32394 -42.25352 0 -42.25352 z" stroke-linecap="round" />
</g>
		<g transform="matrix(4.1666666666 0 0 4.1666666666 0 0)" id="mWtDzpI_GmM7TC22xIvZN"  >
<path style="stroke: none; stroke-width: 1; stroke-dasharray: none; stroke-linecap: butt; stroke-dashoffset: 0; stroke-linejoin: miter; stroke-miterlimit: 4; fill: rgb(36,36,36); fill-rule: nonzero; opacity: 1;"  transform=" translate(-50, -50)" d="M 50 2.5 C 23.766474383037313 2.5 2.5 23.766474383037313 2.5 50 C 2.5 76.23352561696268 23.766474383037313 97.5 50 97.5 C 76.23352561696268 97.5 97.5 76.23352561696268 97.5 50 C 97.5 23.766474383037313 76.23352561696268 2.5 50 2.5 Z M 50.44 85.07 C 31.29754517743828 84.42734985544807 16.111805353235248 68.72323930415189 16.111805353235248 49.56999999999999 C 16.111805353235248 30.416760695848097 31.29754517743827 14.712650144551915 50.43999999999998 14.069999999999993 Z" stroke-linecap="round" />
</g>
</g>
</g>
</svg>